<?xml version="1.0" encoding="UTF-8" standalone="no"?>
<!DOCTYPE svg PUBLIC "-//W3C//DTD SVG 1.1//EN" "http://www.w3.org/Graphics/SVG/1.1/DTD/svg11.dtd">
<!-- Created with Vectornator (http://vectornator.io/) -->
<svg height="100%" stroke-miterlimit="10" style="fill-rule:nonzero;clip-rule:evenodd;stroke-linecap:round;stroke-linejoin:round;" version="1.1" viewBox="0 0 500 500" width="100%" xml:space="preserve" xmlns="http://www.w3.org/2000/svg" xmlns:vectornator="http://vectornator.io" xmlns:xlink="http://www.w3.org/1999/xlink">
<defs/>
<path d="M0 0L500 0L500 500L0 500L0 0Z" fill="#04a595" fill-rule="nonzero" opacity="1" stroke="none"/>
<g id="T" vectornator:layerName="T"/>
<g id="C" vectornator:layerName="C"/>
<g id="Subtitle" vectornator:layerName="Subtitle">
<path d="M287.811 210.132C287.518 211.52 286.731 212.078 285.45 211.808C284.17 211.538 283.555 209.959 283.607 207.072C283.798 205.105 283.99 203.139 284.182 201.173C284.245 197.173 283.704 193.658 282.559 190.63C281.06 186.635 277.851 183.617 272.93 181.576C269.756 180.237 267.144 179.408 265.093 179.087C260.032 178.242 256.956 177.761 255.866 177.643L235.506 274.186C234.696 278.028 235.203 280.644 237.029 282.032C237.983 282.791 240.904 283.741 245.792 284.883C247.05 285.26 247.589 285.876 247.409 286.73C247.207 287.69 246.251 287.99 244.544 287.63C243.69 287.45 242.954 287.239 242.336 286.997C235.977 285.433 231.463 284.37 228.795 283.807C225.272 283.064 221.952 282.42 218.834 281.874C215.716 281.328 211.756 280.548 206.953 279.536C204.498 279.018 203.36 278.332 203.541 277.478C203.743 276.517 206.15 276.468 210.763 277.329C214.071 278.027 216.353 277.783 217.606 276.598C218.32 275.857 219.048 273.725 219.791 270.203L240.016 174.3C229.426 172.178 222.749 171.327 219.985 171.748C212.743 172.785 207.409 178.516 203.984 188.942C202.989 192.077 201.904 193.52 200.73 193.273C199.449 193.002 199.045 191.747 199.518 189.505C199.765 188.331 200.066 187.168 200.421 186.017L201.517 182.402C202.873 177.559 204.715 171.203 207.044 163.333L214.249 164.852L246.809 172.221C250.629 173.138 256.617 174.345 264.774 175.842L291.453 180.967C290.406 186.989 289.231 195.995 287.929 207.983C287.862 208.303 287.831 208.715 287.836 209.218C287.842 209.721 287.833 210.025 287.811 210.132Z" fill="#000000" opacity="1" stroke="none" vectornator:layerName="Text 1"/>
<path d="M286.014 275.357C285.965 275.144 286.188 276.604 286.683 279.736C287.672 286 288.826 292.003 290.143 297.744C290.289 298.382 290.694 299.66 291.358 301.578C292.022 303.497 292.671 305.838 293.306 308.602L293.635 310.037C293.952 311.42 293.685 312.208 292.835 312.403C291.984 312.599 291.057 311.972 290.053 310.524C287.76 307.356 285.747 305.412 284.014 304.69C277.896 313.145 269.467 318.604 258.729 321.068C243.1 324.654 228.905 322.175 216.144 313.631C203.384 305.087 195.101 292.522 191.295 275.936C187.465 259.243 189.042 244.528 196.024 231.79C203.006 219.052 213.94 210.976 228.825 207.561C234.247 206.317 238.683 205.774 242.134 205.934C245.584 206.094 250.018 207.007 255.437 208.674C258.093 209.519 260.006 209.808 261.176 209.539C262.132 209.32 262.841 208.262 263.301 206.366C264 203.071 264.775 201.327 265.626 201.132C266.476 200.936 266.999 201.264 267.194 202.115C267.292 202.54 267.344 203.256 267.351 204.261C267.353 209.633 268.963 219.336 272.183 233.371C272.647 235.391 272.756 236.597 272.51 236.989C272.264 237.381 271.875 237.638 271.344 237.76C270.281 238.004 269.358 237.153 268.575 235.206C265.242 227.017 261.823 221.142 258.32 217.581C251.159 210.271 241.996 207.896 230.832 210.458C222.22 212.434 216.074 216.865 212.395 223.753C205.724 236.14 204.669 252.275 209.231 272.157C213.304 289.912 220.185 302.827 229.872 310.901C238.309 317.919 247.897 320.196 258.635 317.732C264.164 316.464 268.903 313.949 272.853 310.189C276.803 306.429 279.463 301.929 280.836 296.69C282.356 290.633 282.969 284.281 282.675 277.634C282.515 274.984 282.913 273.55 283.87 273.33C284.933 273.086 285.648 273.762 286.014 275.357Z" fill="#000000" opacity="1" stroke="none" vectornator:layerName="Text 1"/>
<g fill="#000000" opacity="1" stroke="none" vectornator:layerName="Text 1">
<path d="M186.828 328.447C186.58 329.135 186.388 329.723 186.252 330.211C186.156 330.547 186.072 330.715 186 330.715C185.936 330.715 185.904 330.683 185.904 330.619C185.904 330.587 185.938 330.445 186.006 330.193C186.074 329.941 186.108 329.711 186.108 329.503C186.108 329.095 185.92 328.843 185.544 328.747C185.392 328.707 185.132 328.687 184.764 328.687C184.54 328.687 184.332 328.695 184.14 328.711L181.356 335.659C181.292 335.819 181.234 335.959 181.182 336.079C181.13 336.199 181.104 336.275 181.104 336.307C181.104 336.491 181.36 336.583 181.872 336.583C181.944 336.583 181.98 336.607 181.98 336.655C181.98 336.743 181.912 336.787 181.776 336.787C181.736 336.787 181.632 336.783 181.464 336.775C181.128 336.759 180.732 336.751 180.276 336.751C179.98 336.751 179.664 336.759 179.328 336.775C179.216 336.791 179.076 336.799 178.908 336.799C178.82 336.799 178.776 336.775 178.776 336.727C178.776 336.631 178.856 336.583 179.016 336.583C179.04 336.583 179.076 336.587 179.124 336.595L179.244 336.595C179.54 336.595 179.742 336.543 179.85 336.439C179.958 336.335 180.108 336.039 180.3 335.551L183.012 328.699L182.532 328.699C181.708 328.699 181.096 328.887 180.696 329.263C180.464 329.479 180.184 329.899 179.856 330.523C179.808 330.619 179.752 330.667 179.688 330.667C179.648 330.667 179.628 330.643 179.628 330.595C179.628 330.571 179.64 330.531 179.664 330.475L179.844 330.067C179.932 329.875 180.064 329.583 180.24 329.191C180.344 328.991 180.46 328.747 180.588 328.459C180.86 328.475 181.86 328.483 183.588 328.483C184.548 328.483 185.628 328.471 186.828 328.447Z"/>
<path d="M193.472 329.443C193.472 329.779 193.316 329.947 193.004 329.947C192.844 329.947 192.712 329.897 192.608 329.797C192.504 329.697 192.452 329.571 192.452 329.419C192.452 329.091 192.636 328.927 193.004 328.927C193.316 328.927 193.472 329.099 193.472 329.443ZM192.644 331.687C192.644 331.711 192.624 331.759 192.584 331.831C192.528 331.927 192.436 332.123 192.308 332.419L190.928 335.575C190.744 335.999 190.652 336.263 190.652 336.367C190.652 336.583 190.764 336.691 190.988 336.691C191.14 336.691 191.314 336.637 191.51 336.529C191.706 336.421 191.856 336.291 191.96 336.139C192.032 336.043 192.088 335.995 192.128 335.995C192.176 335.995 192.2 336.019 192.2 336.067C192.2 336.163 192.088 336.307 191.864 336.499C191.528 336.787 191.148 336.931 190.724 336.931C190.444 336.931 190.214 336.859 190.034 336.715C189.854 336.571 189.764 336.387 189.764 336.163C189.764 335.963 189.864 335.639 190.064 335.191L191.312 332.407C191.352 332.271 191.4 332.167 191.456 332.095C191.48 332.063 191.492 332.035 191.492 332.011C191.492 331.939 191.316 331.891 190.964 331.867C190.9 331.851 190.868 331.823 190.868 331.783C190.868 331.711 190.9 331.675 190.964 331.675C190.972 331.675 191.032 331.683 191.144 331.699C191.256 331.715 191.436 331.723 191.684 331.723C192.02 331.723 192.256 331.695 192.392 331.639C192.472 331.607 192.528 331.591 192.56 331.591C192.616 331.591 192.644 331.623 192.644 331.687Z"/>
<path d="M202.671 332.563C202.671 332.755 202.567 333.087 202.359 333.559L201.387 335.755C201.275 336.011 201.219 336.183 201.219 336.271C201.219 336.439 201.311 336.523 201.495 336.523C201.719 336.523 202.047 336.339 202.479 335.971C202.519 335.947 202.551 335.935 202.575 335.935C202.623 335.935 202.647 335.955 202.647 335.995C202.647 336.091 202.515 336.231 202.251 336.415C201.891 336.663 201.507 336.787 201.099 336.787C200.851 336.787 200.647 336.733 200.487 336.625C200.327 336.517 200.247 336.379 200.247 336.211C200.247 336.075 200.323 335.835 200.475 335.491L201.435 333.343C201.667 332.823 201.783 332.471 201.783 332.287C201.783 332.015 201.643 331.879 201.363 331.879C200.995 331.879 200.563 332.143 200.067 332.671C199.691 333.071 199.347 333.631 199.035 334.351L198.051 336.631C198.011 336.751 197.959 336.811 197.895 336.811C197.879 336.811 197.791 336.803 197.631 336.787C197.607 336.779 197.559 336.775 197.487 336.775C197.423 336.775 197.315 336.783 197.163 336.799C197.139 336.807 197.111 336.811 197.079 336.811C197.023 336.811 196.995 336.791 196.995 336.751C196.995 336.735 197.007 336.711 197.031 336.679L197.115 336.499L198.951 332.083C198.975 332.043 198.995 332.007 199.011 331.975C199.003 331.919 198.903 331.887 198.711 331.879C198.471 331.871 198.351 331.827 198.351 331.747C198.351 331.691 198.395 331.663 198.483 331.663C198.539 331.663 198.627 331.671 198.747 331.687C198.867 331.703 198.959 331.711 199.023 331.711C199.455 331.711 199.739 331.679 199.875 331.615C199.931 331.591 199.967 331.579 199.983 331.579C200.031 331.579 200.055 331.603 200.055 331.651C200.055 331.675 200.051 331.695 200.043 331.711L199.599 332.839C199.663 332.767 199.755 332.667 199.875 332.539C200.467 331.915 201.039 331.603 201.591 331.603C201.911 331.603 202.171 331.693 202.371 331.873C202.571 332.053 202.671 332.283 202.671 332.563Z"/>
<path d="M214.186 331.999C214.186 332.279 214.05 332.419 213.778 332.419C213.65 332.419 213.558 332.343 213.502 332.191C213.486 332.159 213.466 332.143 213.442 332.143C213.362 332.143 213.19 332.359 212.926 332.791L211.69 334.807C211.642 334.895 211.078 335.759 209.998 337.399C209.438 338.255 208.858 338.927 208.258 339.415C207.906 339.703 207.558 339.847 207.214 339.847C206.854 339.847 206.674 339.715 206.674 339.451C206.674 339.315 206.722 339.203 206.818 339.115C206.914 339.027 207.034 338.983 207.178 338.983C207.282 338.983 207.348 338.999 207.376 339.031C207.404 339.063 207.422 339.159 207.43 339.319C207.438 339.439 207.494 339.499 207.598 339.499C207.742 339.499 207.964 339.371 208.264 339.115C208.564 338.859 208.846 338.559 209.11 338.215C209.51 337.695 209.71 337.243 209.71 336.859C209.71 336.747 209.706 336.647 209.698 336.559L209.698 336.271L209.674 332.815C209.674 332.263 209.554 331.987 209.314 331.987C209.026 331.987 208.75 332.295 208.486 332.911C208.39 333.135 208.31 333.247 208.246 333.247C208.182 333.247 208.15 333.211 208.15 333.139C208.15 332.979 208.27 332.719 208.51 332.359C208.87 331.823 209.294 331.555 209.782 331.555C210.142 331.555 210.37 331.675 210.466 331.915C210.538 332.099 210.574 332.407 210.574 332.839L210.574 333.163L210.538 335.299C210.538 335.595 210.546 335.891 210.562 336.187L210.754 335.899C210.834 335.755 210.962 335.539 211.138 335.251L211.522 334.663L212.554 332.959C212.946 332.319 213.2 331.931 213.316 331.795C213.432 331.659 213.582 331.591 213.766 331.591C214.046 331.591 214.186 331.727 214.186 331.999Z"/>
<path d="M233.256 328.975C233.256 329.079 233.196 329.247 233.076 329.479C232.708 330.191 232.488 330.691 232.416 330.979C232.384 331.107 232.336 331.171 232.272 331.171C232.208 331.171 232.176 331.131 232.176 331.051C232.176 331.027 232.204 330.927 232.26 330.751C232.308 330.599 232.332 330.403 232.332 330.163C232.332 329.667 232.204 329.275 231.948 328.987C231.692 328.699 231.344 328.555 230.904 328.555C229.864 328.555 228.988 329.119 228.276 330.247C227.492 331.487 227.1 332.803 227.1 334.195C227.1 335.667 227.636 336.403 228.708 336.403C229.092 336.403 229.452 336.307 229.788 336.115C230.396 335.763 230.836 335.347 231.108 334.867C231.212 334.683 231.3 334.591 231.372 334.591C231.42 334.591 231.444 334.623 231.444 334.687C231.444 334.871 231.22 335.203 230.772 335.683C229.988 336.515 229.088 336.931 228.072 336.931C227.36 336.931 226.802 336.705 226.398 336.253C225.994 335.801 225.792 335.175 225.792 334.375C225.792 332.871 226.33 331.487 227.406 330.223C228.482 328.959 229.66 328.327 230.94 328.327C231.292 328.327 231.588 328.387 231.828 328.507C231.996 328.595 232.244 328.779 232.572 329.059C232.652 329.131 232.732 329.167 232.812 329.167C232.908 329.167 233 329.091 233.088 328.939C233.12 328.907 233.152 328.891 233.184 328.891C233.232 328.891 233.256 328.919 233.256 328.975Z"/>
<path d="M242.275 335.887C242.275 335.943 242.199 336.035 242.047 336.163C241.479 336.643 240.963 336.883 240.499 336.883C240.275 336.883 240.095 336.821 239.959 336.697C239.823 336.573 239.755 336.411 239.755 336.211C239.755 336.043 239.851 335.743 240.043 335.311L241.099 332.947C241.275 332.555 241.363 332.311 241.363 332.215C241.363 331.967 241.231 331.843 240.967 331.843C240.639 331.843 240.239 332.067 239.767 332.515C239.407 332.859 239.133 333.171 238.945 333.451C238.757 333.731 238.535 334.163 238.279 334.747L237.499 336.499C237.435 336.651 237.391 336.739 237.367 336.763C237.343 336.787 237.295 336.799 237.223 336.799C237.191 336.799 237.083 336.791 236.899 336.775C236.651 336.791 236.513 336.803 236.485 336.811C236.457 336.819 236.427 336.823 236.395 336.823C236.363 336.823 236.347 336.811 236.347 336.787C236.347 336.755 236.375 336.675 236.431 336.547L239.731 329.035C239.851 328.763 239.911 328.607 239.911 328.567C239.911 328.503 239.893 328.467 239.857 328.459C239.821 328.451 239.691 328.447 239.467 328.447C239.275 328.447 239.179 328.407 239.179 328.327C239.179 328.287 239.207 328.267 239.263 328.267C239.319 328.267 239.363 328.271 239.395 328.279L240.283 328.291C240.459 328.291 240.627 328.279 240.787 328.255C240.883 328.239 240.947 328.231 240.979 328.231C241.051 328.231 241.087 328.259 241.087 328.315C241.087 328.371 241.071 328.419 241.039 328.459C240.983 328.595 240.931 328.703 240.883 328.783L238.939 333.091C239.443 332.523 239.863 332.129 240.199 331.909C240.535 331.689 240.887 331.579 241.255 331.579C241.551 331.579 241.793 331.649 241.981 331.789C242.169 331.929 242.263 332.107 242.263 332.323C242.263 332.563 242.171 332.895 241.987 333.319L240.895 335.827C240.759 336.139 240.691 336.327 240.691 336.391C240.691 336.511 240.751 336.571 240.871 336.571C241.135 336.571 241.503 336.371 241.975 335.971C242.095 335.867 242.175 335.815 242.215 335.815C242.255 335.815 242.275 335.839 242.275 335.887Z"/>
<path d="M253.203 331.663C253.203 331.687 253.171 331.771 253.107 331.915L251.523 335.515C251.371 335.859 251.295 336.123 251.295 336.307C251.295 336.515 251.399 336.619 251.607 336.619C251.919 336.619 252.231 336.407 252.543 335.983C252.607 335.895 252.655 335.851 252.687 335.851C252.719 335.851 252.735 335.867 252.735 335.899C252.735 335.987 252.647 336.127 252.471 336.319C252.119 336.695 251.699 336.883 251.211 336.883C250.963 336.883 250.761 336.823 250.605 336.703C250.449 336.583 250.371 336.427 250.371 336.235C250.371 336.115 250.399 335.975 250.455 335.815C249.951 336.559 249.367 336.931 248.703 336.931C248.287 336.931 247.947 336.797 247.683 336.529C247.419 336.261 247.287 335.919 247.287 335.503C247.287 335.047 247.439 334.547 247.743 334.003C248.047 333.459 248.451 332.963 248.955 332.515C249.643 331.907 250.275 331.603 250.851 331.603C251.451 331.603 251.787 331.891 251.859 332.467L252.159 331.831C252.223 331.703 252.279 331.639 252.327 331.639C252.343 331.639 252.391 331.647 252.471 331.663C252.551 331.679 252.607 331.687 252.639 331.687C252.815 331.687 252.951 331.663 253.047 331.615C253.079 331.591 253.107 331.579 253.131 331.579C253.179 331.579 253.203 331.607 253.203 331.663ZM251.691 332.683C251.691 332.435 251.617 332.235 251.469 332.083C251.321 331.931 251.131 331.855 250.899 331.855C250.499 331.855 250.115 332.091 249.747 332.563C249.323 333.099 248.983 333.665 248.727 334.261C248.471 334.857 248.343 335.379 248.343 335.827C248.343 336.371 248.567 336.643 249.015 336.643C249.271 336.643 249.549 336.503 249.849 336.223C250.149 335.943 250.399 335.591 250.599 335.167L251.535 333.151C251.639 332.927 251.691 332.771 251.691 332.683Z"/>
<path d="M263.254 332.563C263.254 332.755 263.15 333.087 262.942 333.559L261.97 335.755C261.858 336.011 261.802 336.183 261.802 336.271C261.802 336.439 261.894 336.523 262.078 336.523C262.302 336.523 262.63 336.339 263.062 335.971C263.102 335.947 263.134 335.935 263.158 335.935C263.206 335.935 263.23 335.955 263.23 335.995C263.23 336.091 263.098 336.231 262.834 336.415C262.474 336.663 262.09 336.787 261.682 336.787C261.434 336.787 261.23 336.733 261.07 336.625C260.91 336.517 260.83 336.379 260.83 336.211C260.83 336.075 260.906 335.835 261.058 335.491L262.018 333.343C262.25 332.823 262.366 332.471 262.366 332.287C262.366 332.015 262.226 331.879 261.946 331.879C261.578 331.879 261.146 332.143 260.65 332.671C260.274 333.071 259.93 333.631 259.618 334.351L258.634 336.631C258.594 336.751 258.542 336.811 258.478 336.811C258.462 336.811 258.374 336.803 258.214 336.787C258.19 336.779 258.142 336.775 258.07 336.775C258.006 336.775 257.898 336.783 257.746 336.799C257.722 336.807 257.694 336.811 257.662 336.811C257.606 336.811 257.578 336.791 257.578 336.751C257.578 336.735 257.59 336.711 257.614 336.679L257.698 336.499L259.534 332.083C259.558 332.043 259.578 332.007 259.594 331.975C259.586 331.919 259.486 331.887 259.294 331.879C259.054 331.871 258.934 331.827 258.934 331.747C258.934 331.691 258.978 331.663 259.066 331.663C259.122 331.663 259.21 331.671 259.33 331.687C259.45 331.703 259.542 331.711 259.606 331.711C260.038 331.711 260.322 331.679 260.458 331.615C260.514 331.591 260.55 331.579 260.566 331.579C260.614 331.579 260.638 331.603 260.638 331.651C260.638 331.675 260.634 331.695 260.626 331.711L260.182 332.839C260.246 332.767 260.338 332.667 260.458 332.539C261.05 331.915 261.622 331.603 262.174 331.603C262.494 331.603 262.754 331.693 262.954 331.873C263.154 332.053 263.254 332.283 263.254 332.563Z"/>
<path d="M274.037 332.071C274.037 332.327 273.917 332.455 273.677 332.455C273.453 332.455 273.341 332.347 273.341 332.131C273.341 332.107 273.345 332.081 273.353 332.053C273.361 332.025 273.369 331.987 273.377 331.939C273.377 331.899 273.353 331.879 273.305 331.879C273.225 331.879 273.111 331.965 272.963 332.137C272.815 332.309 272.741 332.439 272.741 332.527C272.741 332.567 272.757 332.615 272.789 332.671C272.885 332.895 272.933 333.139 272.933 333.403C272.933 333.971 272.743 334.453 272.363 334.849C271.983 335.245 271.477 335.443 270.845 335.443C270.381 335.443 269.965 335.311 269.597 335.047C268.981 335.263 268.673 335.503 268.673 335.767C268.673 335.935 268.793 336.039 269.033 336.079C269.481 336.151 269.733 336.179 269.789 336.163L270.785 336.163C271.241 336.163 271.569 336.187 271.769 336.235C272.361 336.379 272.657 336.811 272.657 337.531C272.657 338.171 272.429 338.723 271.973 339.187C271.485 339.683 270.809 339.931 269.945 339.931C269.321 339.931 268.769 339.787 268.289 339.499C267.705 339.147 267.413 338.735 267.413 338.263C267.413 337.935 267.561 337.663 267.857 337.447C267.993 337.351 268.293 337.215 268.757 337.039C268.293 336.847 268.061 336.567 268.061 336.199C268.061 335.591 268.525 335.155 269.453 334.891C269.197 334.555 269.069 334.215 269.069 333.871C269.069 333.255 269.295 332.725 269.747 332.281C270.199 331.837 270.737 331.615 271.361 331.615C271.841 331.615 272.249 331.831 272.585 332.263C272.881 331.807 273.193 331.579 273.521 331.579C273.865 331.579 274.037 331.743 274.037 332.071ZM272.093 332.659C272.093 332.099 271.861 331.819 271.397 331.819C271.013 331.819 270.669 332.155 270.365 332.827C270.101 333.403 269.969 333.943 269.969 334.447C269.969 334.967 270.225 335.227 270.737 335.227C271.113 335.227 271.437 334.919 271.709 334.303C271.965 333.727 272.093 333.179 272.093 332.659ZM272.309 337.975C272.309 337.775 272.245 337.597 272.117 337.441C271.989 337.285 271.829 337.187 271.637 337.147C271.373 337.091 270.953 337.067 270.377 337.075L269.021 337.099C268.525 337.347 268.277 337.731 268.277 338.251C268.277 338.691 268.435 339.045 268.751 339.313C269.067 339.581 269.485 339.715 270.005 339.715C270.621 339.715 271.159 339.541 271.619 339.193C272.079 338.845 272.309 338.439 272.309 337.975Z"/>
<path d="M283.068 332.431C283.068 332.863 282.836 333.221 282.372 333.505C281.908 333.789 281.32 333.931 280.608 333.931C280.352 333.931 280.068 333.911 279.756 333.871C279.46 334.487 279.312 335.059 279.312 335.587C279.312 336.299 279.628 336.655 280.26 336.655C280.748 336.655 281.224 336.399 281.688 335.887C281.792 335.775 281.86 335.719 281.892 335.719C281.932 335.719 281.952 335.739 281.952 335.779C281.952 335.963 281.764 336.191 281.388 336.463C280.956 336.775 280.508 336.931 280.044 336.931C279.524 336.931 279.096 336.779 278.76 336.475C278.424 336.171 278.256 335.787 278.256 335.323C278.256 334.427 278.744 333.559 279.72 332.719C280.576 331.983 281.34 331.615 282.012 331.615C282.716 331.615 283.068 331.887 283.068 332.431ZM282.216 332.227C282.216 331.979 282.092 331.855 281.844 331.855C281.588 331.855 281.336 331.951 281.088 332.143C280.64 332.495 280.228 333.019 279.852 333.715C279.948 333.723 280.056 333.727 280.176 333.727C280.624 333.727 281.06 333.591 281.484 333.319C281.972 333.015 282.216 332.651 282.216 332.227Z"/>
<path d="M291.859 332.527C291.859 332.663 291.815 332.779 291.727 332.875C291.639 332.971 291.535 333.019 291.415 333.019C291.175 333.019 291.055 332.903 291.055 332.671C291.055 332.479 291.135 332.383 291.295 332.383C291.319 332.383 291.357 332.395 291.409 332.419C291.461 332.443 291.503 332.455 291.535 332.455C291.583 332.455 291.607 332.427 291.607 332.371C291.607 332.235 291.515 332.103 291.331 331.975C291.147 331.847 290.959 331.783 290.767 331.783C290.511 331.783 290.295 331.865 290.119 332.029C289.943 332.193 289.855 332.391 289.855 332.623C289.855 332.823 290.043 333.379 290.419 334.291C290.507 334.507 290.551 334.751 290.551 335.023C290.551 335.567 290.367 336.023 289.999 336.391C289.631 336.759 289.171 336.943 288.619 336.943C288.139 336.943 287.737 336.809 287.413 336.541C287.089 336.273 286.927 335.943 286.927 335.551C286.927 335.327 286.993 335.143 287.125 334.999C287.257 334.855 287.423 334.783 287.623 334.783C287.775 334.783 287.905 334.835 288.013 334.939C288.121 335.043 288.175 335.167 288.175 335.311C288.175 335.551 288.059 335.671 287.827 335.671C287.579 335.671 287.455 335.587 287.455 335.419C287.455 335.363 287.465 335.307 287.485 335.251C287.505 335.195 287.515 335.163 287.515 335.155C287.515 335.075 287.483 335.035 287.419 335.035C287.347 335.035 287.281 335.089 287.221 335.197C287.161 335.305 287.131 335.423 287.131 335.551C287.131 335.863 287.261 336.135 287.521 336.367C287.781 336.599 288.087 336.715 288.439 336.715C288.767 336.715 289.041 336.615 289.261 336.415C289.481 336.215 289.591 335.963 289.591 335.659C289.591 335.443 289.507 335.091 289.339 334.603C289.179 334.139 289.099 333.755 289.099 333.451C289.099 332.931 289.257 332.493 289.573 332.137C289.889 331.781 290.275 331.603 290.731 331.603C291.035 331.603 291.299 331.695 291.523 331.879C291.747 332.063 291.859 332.279 291.859 332.527Z"/>
</g>
<path d="M322.197 338.31C322.314 338.31 322.379 338.248 322.391 338.123C322.441 337.732 322.493 337.426 322.546 337.203C322.599 336.98 322.683 336.812 322.798 336.699C322.913 336.586 323.084 336.5 323.31 336.441C323.537 336.383 323.85 336.322 324.248 336.26C324.385 336.236 324.453 336.17 324.453 336.06C324.453 336.006 324.435 335.962 324.4 335.929C324.365 335.895 324.322 335.873 324.271 335.861C323.873 335.787 323.558 335.72 323.328 335.659C323.098 335.599 322.923 335.514 322.804 335.404C322.684 335.295 322.599 335.131 322.546 334.912C322.493 334.693 322.441 334.389 322.391 333.998C322.379 333.873 322.314 333.81 322.197 333.81C322.142 333.81 322.097 333.827 322.059 333.86C322.022 333.893 322.002 333.937 321.998 333.992C321.947 334.391 321.894 334.702 321.84 334.927C321.785 335.151 321.7 335.321 321.585 335.436C321.47 335.552 321.297 335.638 321.066 335.694C320.836 335.751 320.519 335.807 320.117 335.861C320.066 335.869 320.023 335.891 319.988 335.926C319.953 335.961 319.935 336.006 319.935 336.06C319.935 336.115 319.953 336.159 319.988 336.192C320.023 336.226 320.066 336.248 320.117 336.26C320.519 336.334 320.836 336.402 321.066 336.465C321.297 336.527 321.47 336.614 321.585 336.726C321.7 336.837 321.784 337.002 321.837 337.221C321.89 337.439 321.943 337.744 321.998 338.135C322.002 338.185 322.022 338.227 322.059 338.261C322.097 338.294 322.142 338.31 322.197 338.31ZM319.414 333.207C319.492 333.207 319.539 333.162 319.555 333.072C319.605 332.795 319.652 332.575 319.695 332.413C319.738 332.251 319.801 332.126 319.883 332.038C319.965 331.95 320.088 331.883 320.252 331.836C320.416 331.789 320.646 331.74 320.943 331.689C321.033 331.674 321.078 331.625 321.078 331.543C321.078 331.461 321.033 331.412 320.943 331.396C320.646 331.346 320.416 331.296 320.252 331.247C320.088 331.198 319.965 331.131 319.883 331.045C319.801 330.959 319.738 330.835 319.695 330.673C319.652 330.511 319.605 330.289 319.555 330.008C319.539 329.922 319.492 329.879 319.414 329.879C319.332 329.879 319.283 329.922 319.267 330.008C319.217 330.289 319.17 330.511 319.127 330.673C319.084 330.835 319.021 330.959 318.939 331.045C318.857 331.131 318.734 331.198 318.57 331.247C318.406 331.296 318.178 331.346 317.885 331.396C317.795 331.412 317.75 331.461 317.75 331.543C317.75 331.625 317.795 331.674 317.885 331.689C318.178 331.74 318.406 331.789 318.57 331.836C318.734 331.883 318.857 331.95 318.939 332.038C319.021 332.126 319.084 332.251 319.127 332.413C319.17 332.575 319.217 332.795 319.267 333.072C319.275 333.111 319.291 333.143 319.314 333.169C319.338 333.194 319.371 333.207 319.414 333.207ZM322.625 329.457C322.687 329.457 322.726 329.422 322.742 329.351C322.793 329.117 322.837 328.933 322.874 328.798C322.911 328.663 322.964 328.56 323.032 328.487C323.1 328.415 323.203 328.358 323.34 328.317C323.476 328.276 323.666 328.23 323.908 328.18C323.982 328.168 324.019 328.129 324.019 328.062C324.019 327.996 323.982 327.955 323.908 327.939C323.666 327.889 323.476 327.843 323.34 327.802C323.203 327.761 323.1 327.704 323.032 327.632C322.964 327.56 322.911 327.457 322.874 327.324C322.837 327.191 322.793 327.008 322.742 326.773C322.726 326.699 322.687 326.662 322.625 326.662C322.558 326.662 322.517 326.699 322.502 326.773C322.455 327.008 322.412 327.191 322.373 327.324C322.334 327.457 322.28 327.56 322.212 327.632C322.143 327.704 322.042 327.761 321.907 327.802C321.772 327.843 321.582 327.889 321.336 327.939C321.262 327.955 321.225 327.996 321.225 328.062C321.225 328.129 321.262 328.168 321.336 328.18C321.582 328.23 321.772 328.276 321.907 328.317C322.042 328.358 322.143 328.415 322.212 328.487C322.28 328.56 322.334 328.663 322.373 328.798C322.412 328.933 322.455 329.117 322.502 329.351C322.517 329.422 322.558 329.457 322.625 329.457ZM327.465 331.525C327.543 331.525 327.59 331.482 327.605 331.396C327.656 331.115 327.703 330.893 327.746 330.731C327.789 330.569 327.851 330.445 327.933 330.359C328.016 330.273 328.14 330.206 328.306 330.157C328.472 330.108 328.701 330.059 328.994 330.008C329.084 329.992 329.129 329.943 329.129 329.861C329.129 329.779 329.084 329.73 328.994 329.715C328.701 329.664 328.472 329.615 328.306 329.568C328.14 329.521 328.016 329.454 327.933 329.366C327.851 329.278 327.789 329.153 327.746 328.991C327.703 328.829 327.656 328.609 327.605 328.332C327.59 328.242 327.543 328.197 327.465 328.197C327.383 328.197 327.334 328.242 327.318 328.332C327.267 328.609 327.221 328.829 327.178 328.991C327.135 329.153 327.072 329.278 326.99 329.366C326.908 329.454 326.785 329.521 326.621 329.568C326.457 329.615 326.228 329.664 325.935 329.715C325.896 329.723 325.864 329.739 325.839 329.765C325.813 329.79 325.801 329.822 325.801 329.861C325.801 329.943 325.846 329.992 325.935 330.008C326.228 330.059 326.457 330.108 326.621 330.157C326.785 330.206 326.908 330.273 326.99 330.359C327.072 330.445 327.135 330.569 327.178 330.731C327.221 330.893 327.267 331.115 327.318 331.396C327.334 331.482 327.383 331.525 327.465 331.525ZM329.416 338.217C329.502 338.303 329.6 338.359 329.712 338.387C329.823 338.414 329.933 338.413 330.043 338.384C330.152 338.354 330.246 338.299 330.324 338.217C330.445 338.088 330.505 337.936 330.503 337.763C330.501 337.589 330.441 337.439 330.324 337.314L324.752 331.725C324.67 331.643 324.573 331.588 324.462 331.56C324.35 331.533 324.24 331.533 324.131 331.56C324.021 331.588 323.928 331.643 323.85 331.725C323.728 331.853 323.668 332.006 323.668 332.182C323.668 332.357 323.728 332.508 323.85 332.633L329.416 338.217ZM329.627 337.812L326.012 334.191L326.305 333.91L329.92 337.531C329.971 337.582 330.001 337.635 330.011 337.689C330.02 337.744 330 337.799 329.949 337.853C329.902 337.9 329.85 337.919 329.794 337.909C329.737 337.899 329.682 337.867 329.627 337.812Z" fill="#000000" opacity="1" stroke="none" vectornator:layerName="Text 2"/>
</g>
</svg>
